<svg width="33" height="25" viewBox="0 0 33 25" fill="none" xmlns="http://www.w3.org/2000/svg">
<path d="M5.47691 24.9172C4.77794 24.6003 4.63855 23.748 5.19296 23.1808C5.32733 23.0434 5.43722 22.9078 5.43722 22.8795C5.43722 22.8512 5.21401 22.8174 4.94116 22.8045L4.44507 22.781L4.42167 22.2127L4.39827 21.6446L5.4534 21.6225L6.50853 21.6005L6.52952 19.1807L6.55054 16.7609L3.7118 16.7556C2.15053 16.7526 0.676665 16.7436 0.436583 16.7359L0 16.7217V13.8887V11.0557H0.436583H0.873129L0.895321 12.0197L0.917512 12.9838H8.28724H15.6569L16.5197 12.2274C17.6212 11.2618 17.7127 11.1737 17.6143 11.1737C17.5696 11.1737 17.2132 11.4697 16.8223 11.8312C16.4315 12.1928 15.9511 12.5735 15.7549 12.6772L15.3981 12.8657L9.79726 12.8874L4.19642 12.9091L3.931 12.73C3.53478 12.4627 3.35475 12.1744 3.31908 11.7502C3.27658 11.2447 3.5216 10.8205 4.0008 10.5699L4.35063 10.3869H8.74125H13.1319L13.2551 10.1508C13.3545 9.96008 13.4291 9.91475 13.6429 9.91475C13.7885 9.91475 14.0822 9.88887 14.2957 9.85746L14.6838 9.80017L14.3663 9.75907L14.0488 9.71797L14.026 8.95074L14.0032 8.18351H14.7006C15.0842 8.18327 15.6938 8.16026 16.0554 8.13225L16.7129 8.08149L17.7261 7.16874C19.9922 5.12719 19.9532 5.15779 20.2842 5.15779C20.8126 5.15779 21.1851 5.67823 21.0008 6.15884C20.8938 6.43797 17.6313 9.33754 17.2103 9.52765C16.9416 9.64903 16.694 9.67913 15.9626 9.67913C15.3753 9.67913 15.0306 9.71052 14.9953 9.76721C14.9552 9.83154 15.2263 9.83962 16.0026 9.79727C16.8288 9.75221 17.1351 9.70397 17.3814 9.58001C17.7387 9.40022 20.7997 6.70833 21.0132 6.38619C21.2841 5.97747 21.1285 5.31561 20.7181 5.1302C20.4629 5.01492 20.0824 5.00884 19.879 5.11684C19.7955 5.16112 19.0746 5.78519 18.2769 6.50368C17.4793 7.22213 16.7501 7.86039 16.6565 7.92196C16.5398 7.99869 16.3128 8.02652 15.9345 8.01055L15.3828 7.98738L17.193 6.29549C19.1851 4.43356 19.4538 4.25211 20.2224 4.25042C21.3028 4.24744 22.0563 4.97812 22.0489 6.02C22.0423 6.93601 22.0732 6.89989 18.176 10.5659C17.9141 10.8123 17.741 11.0146 17.7914 11.0154C17.8869 11.0184 18.3576 10.6156 21.1111 8.18409C22.0178 7.38337 22.8088 6.68898 22.8689 6.64092C23.0225 6.51796 23.0053 6.46758 22.7995 6.43861C22.5682 6.40605 22.3434 5.96354 22.3432 5.54075C22.343 5.12082 22.6082 4.10158 22.8587 3.55899L23.0569 3.12992L22.7309 3.4219C22.2995 3.80831 21.9602 3.93906 21.3661 3.94798C20.787 3.95661 20.3523 3.79763 19.9748 3.43882C18.6628 2.19193 19.5426 0 21.3551 0C22.6244 0 23.5889 1.2055 23.307 2.43951L23.2261 2.79358L23.3989 2.55751C24.1753 1.49719 24.9239 1.12357 25.2582 1.62951C25.58 2.11678 25.3518 3.4854 24.7518 4.66671L24.4764 5.20891L24.8072 4.94554C24.9891 4.80073 25.2023 4.55716 25.281 4.40428C25.4239 4.12691 25.7877 3.86112 25.8882 3.96076C25.9173 3.98961 25.8849 4.01333 25.816 4.01333C25.7471 4.01333 25.5983 4.12234 25.4853 4.2555L25.2798 4.49759V6.85113V9.2046L25.5113 9.46165L25.7427 9.71863L26.6622 9.74506L27.5817 9.77156L27.5925 9.9812C27.6021 10.1666 27.6072 10.1704 27.6377 10.0137C27.6566 9.91635 27.7053 9.8367 27.7459 9.8367C27.7865 9.8367 27.8198 9.78356 27.8198 9.71863C27.8198 9.62006 27.6573 9.60063 26.8334 9.60063C25.4216 9.60063 25.518 9.79947 25.518 6.88569C25.518 4.67777 25.5246 4.57715 25.6825 4.37814L25.847 4.17076H27.137C28.9309 4.17076 28.7722 3.90489 28.7722 6.91038C28.7722 9.18089 28.7653 9.29277 28.6135 9.4432C28.5262 9.52976 28.3833 9.60063 28.296 9.60063C28.2078 9.60063 28.1373 9.65308 28.1373 9.71863C28.1373 9.78356 28.1771 9.8367 28.2259 9.8367C28.2776 9.8367 28.2987 9.91857 28.2766 10.0334C28.2556 10.1416 28.2694 10.2301 28.307 10.2301C28.3446 10.2301 28.3754 10.1263 28.3754 9.99935C28.3754 9.83871 28.423 9.7536 28.532 9.71928C28.6182 9.69221 28.7611 9.57879 28.8495 9.46731C29.0029 9.27405 29.0103 9.15555 29.0103 6.91815C29.0103 4.35873 28.99 4.22346 28.5757 4.04456C28.4437 3.98754 28.3934 3.93944 28.4639 3.93774C28.7112 3.93179 29.0083 4.24813 29.0607 4.57318C29.0954 4.78866 29.2203 5.00599 29.4633 5.27397C29.843 5.6926 29.8986 5.99451 29.6056 6.04679C29.5183 6.06226 29.3665 6.14856 29.2683 6.23835C29.0959 6.39595 29.0897 6.4503 29.0897 7.80825C29.0897 9.33677 29.0272 9.61703 28.6551 9.75733C28.5297 9.80459 28.4575 9.90271 28.4406 10.049C28.4223 10.2081 28.3653 10.2765 28.2365 10.2947C28.1047 10.3131 28.0579 10.3723 28.0579 10.52C28.0579 11.1731 27.3053 11.7253 26.4151 11.7253H25.9148V16.683V21.6407H26.3945H26.8743L26.8509 22.2112L26.8275 22.7817L26.3711 22.8053C25.8579 22.8317 25.7998 22.9227 26.1108 23.2123C26.9012 23.9486 26.1108 25.2828 25.0841 24.9466C24.3331 24.7009 24.1142 23.7456 24.6867 23.2123C25.0679 22.8573 24.986 22.8267 23.593 22.8033L22.3032 22.7816L22.2783 22.5258L22.2535 22.27H15.869H9.48456V22.5455V22.821H7.97648C6.54973 22.821 6.4684 22.829 6.4684 22.9699C6.4684 23.0518 6.51634 23.1371 6.57496 23.1594C6.72322 23.2158 6.94467 23.7041 6.94431 23.9738C6.94431 24.2478 6.70249 24.6569 6.4409 24.8269C6.16647 25.0052 5.75467 25.0439 5.47622 24.9177L5.47691 24.9172ZM24.4674 16.6344L24.4878 11.668L24.0705 11.6183C23.1455 11.5082 23.3685 11.3701 20.6995 13.7058C19.3555 14.882 18.0242 16.0506 17.741 16.3027L17.2262 16.7611H13.1573H9.08833V19.201V21.6408L16.7676 21.6206L24.4469 21.6007L24.4674 16.6344ZM27.2197 11.4088C27.6039 11.2201 27.8147 10.9543 27.8757 10.5815C27.9152 10.3404 27.9003 10.3082 27.7493 10.3082C27.6227 10.3082 27.5658 10.2468 27.5306 10.0721L27.4829 9.83604H26.6992H25.9153V10.7017V11.5673H26.4062C26.7385 11.5673 27.0013 11.5161 27.2197 11.4088ZM24.4866 10.9771C24.4866 10.6958 24.4662 10.4656 24.4414 10.4656C24.4165 10.4656 24.1661 10.6692 23.8848 10.9181L23.3735 11.3706L23.6324 11.4192C23.7748 11.446 24.0253 11.4725 24.189 11.4782L24.4866 11.4886V10.9771ZM28.2523 8.402C28.4419 8.13361 28.4352 4.91637 28.2445 4.70752C28.1305 4.58254 27.981 4.5636 27.1095 4.5636C26.4347 4.5636 26.0746 4.59452 26.0106 4.65799C25.9421 4.72592 25.9153 5.25482 25.9153 6.541C25.9153 8.06208 25.9339 8.3481 26.0401 8.45327C26.14 8.55237 26.3599 8.57693 27.1468 8.57693C28.0715 8.57693 28.1359 8.56681 28.2523 8.402ZM28.7294 23.9651C28.4352 23.6733 28.4575 23.2136 28.7788 22.9455C29.1137 22.6661 29.4352 22.6782 29.7412 22.9817C29.9556 23.1942 29.9781 23.2591 29.9386 23.5513C29.8828 23.9634 29.6575 24.1582 29.2366 24.1582C29.0108 24.1582 28.8703 24.1047 28.7294 23.9651ZM31.8864 24.1056C31.7461 24.0496 31.5508 23.6536 31.5508 23.4252C31.5508 23.1468 31.8354 22.8337 32.1398 22.777C32.4664 22.7163 32.8654 22.9028 32.9457 23.1537C33.126 23.7169 32.8428 24.1622 32.3108 24.152C32.1329 24.1485 31.9419 24.1276 31.8864 24.1056ZM30.3963 23.6503C30.2891 23.544 30.2014 23.3831 30.2014 23.2926C30.2014 23.2021 30.2891 23.0411 30.3963 22.9349C30.5034 22.8286 30.6658 22.7417 30.757 22.7417C30.8483 22.7417 31.0107 22.8286 31.1178 22.9349C31.225 23.0411 31.3127 23.2021 31.3127 23.2926C31.3127 23.5049 30.9712 23.8435 30.757 23.8435C30.6658 23.8435 30.5034 23.7565 30.3963 23.6503ZM29.1696 22.2756C29.1696 22.0529 29.187 22.041 29.5466 22.0181L29.9236 21.994L29.9633 18.6889L30.003 15.3838L30.2411 15.3809L30.4792 15.3779L30.4996 9.5771L30.52 3.77625H30.2789C29.9718 3.77625 29.9112 3.6223 29.9633 2.97395L30.0031 2.47785H30.7969H31.5905V3.10661V3.73537L31.3524 3.77625L31.1143 3.8172V9.59388V15.3706L31.3002 15.3842C31.4024 15.3916 31.518 15.4477 31.557 15.5087C31.5959 15.5698 31.6283 17.0608 31.629 18.8221V22.0246L32.006 22.0487C32.3488 22.0704 32.383 22.0905 32.383 22.2694V22.4661L30.7758 22.4875L29.1685 22.5089V22.2756H29.1696ZM12.2454 9.7134C11.8201 9.48453 11.7271 8.90368 12.0552 8.52545C12.2219 8.33328 12.3104 8.30405 12.8093 8.27609L13.3745 8.24436V8.9917C13.3745 9.70013 13.3652 9.74145 13.1959 9.78645C12.8915 9.86732 12.4715 9.83504 12.2454 9.7134ZM26.8864 3.89795C26.7439 3.83484 26.6061 3.72863 26.5803 3.66189C26.5193 3.50431 26.4004 3.50822 26.2158 3.67379C26.0801 3.79556 26.0716 3.79583 26.1177 3.67677C26.1453 3.60509 26.2273 3.52782 26.2997 3.50504C26.3988 3.47387 26.4307 3.36947 26.4292 3.08221C26.4262 2.71507 26.4013 2.67193 25.7347 1.93122C25.3538 1.50793 25.0422 1.13279 25.0422 1.09755C25.0422 1.01436 25.2726 0.786183 25.3566 0.786183C25.455 0.786183 25.6729 0.998213 26.307 1.71084C26.8684 2.3418 26.8946 2.36008 27.2395 2.36008C27.73 2.36008 28.0584 2.67546 28.0584 3.14655C28.0584 3.33178 28.1099 3.52403 28.1774 3.59101C28.2429 3.65594 28.2937 3.76854 28.2903 3.84117C28.2852 3.94916 28.2758 3.95176 28.2399 3.85518C28.1277 3.55466 28.0397 3.52871 27.825 3.73268C27.5601 3.98427 27.2178 4.04464 26.8864 3.89795ZM27.3639 3.56712C27.3093 3.54541 27.22 3.54541 27.1655 3.56712C27.1109 3.58884 27.1556 3.60684 27.2647 3.60684C27.3738 3.60684 27.4184 3.58899 27.3639 3.56712ZM26.9759 3.34384C26.9507 3.27891 26.8994 3.22577 26.8618 3.22577C26.8242 3.22577 26.814 3.27891 26.839 3.34384C26.8642 3.40877 26.9155 3.46191 26.9531 3.46191C26.9907 3.46191 27.0009 3.40877 26.9759 3.34384ZM27.579 2.86786C27.5264 2.80501 27.4331 2.75364 27.3716 2.75364C27.2905 2.75364 27.3095 2.8203 27.4409 2.99697C27.5794 3.18318 27.628 3.21003 27.6482 3.11126C27.6626 3.04026 27.6317 2.93071 27.579 2.86786ZM27.0266 1.84866V1.57324H29.0413C30.8945 1.57324 31.0587 1.58421 31.0892 1.71091C31.1075 1.78664 31.109 1.91061 31.0928 1.98633C31.0655 2.11313 30.9027 2.12408 29.0449 2.12408H27.0267L27.0266 1.84866Z" fill="white"/>
</svg>
