<svg width="21" height="19" viewBox="0 0 21 19" fill="none" xmlns="http://www.w3.org/2000/svg">
<mask id="path-1-outside-1_118_11688" maskUnits="userSpaceOnUse" x="0" y="0" width="21" height="19" fill="black">
<rect fill="white" width="21" height="19"/>
<path d="M5.80561 17.9739C5.33759 17.8645 4.84982 17.5712 4.53364 17.209C4.16605 16.788 4.10308 16.5993 3.44392 13.9439C3.11535 12.6202 2.78742 11.38 2.7152 11.1878C2.56233 10.7811 2.38638 10.4326 2.06545 9.90056C1.619 9.1605 1.31205 8.38929 1.14836 7.59636C0.734615 5.59215 1.19083 3.81633 2.45985 2.49135C3.18264 1.73668 4.09808 1.24006 5.10415 1.05677C5.52308 0.980453 6.35219 0.981217 6.77615 1.05824C7.67678 1.222 8.62425 1.71176 9.30098 2.3634L9.46392 2.52031L9.69704 2.30824C10.2535 1.80212 10.7813 1.48256 11.4404 1.25293C12.0455 1.04211 12.4528 0.984997 13.1779 1.00928C14.0288 1.03778 14.527 1.17124 15.266 1.56856C15.9794 1.95212 16.5607 2.48071 17.0319 3.17435L17.2545 3.50196L17.5023 3.52137C17.6947 3.53645 17.7689 3.5605 17.8346 3.62913C17.9175 3.71575 17.9194 3.73677 17.9302 4.70631L17.9413 5.69514H18.8664C19.7907 5.69514 19.7916 5.69522 19.8957 5.78883L20 5.88251V7.1508V8.41908L19.8957 8.51277C19.7916 8.60637 19.7907 8.60645 18.8664 8.60645H17.9413L17.9302 9.59528C17.916 10.8661 17.9986 10.7538 17.058 10.7802L16.3659 10.7996L16.2254 11.1684C16.1427 11.3853 15.8389 12.5281 15.4874 13.9438C14.7921 16.7449 14.7674 16.8149 14.2997 17.3013C13.9879 17.6257 13.6417 17.8322 13.2215 17.9444C12.8596 18.0411 12.2454 18.0082 11.8818 17.8726C11.3342 17.6684 10.8547 17.2297 10.6001 16.6999C10.5283 16.5504 10.2591 15.7382 10.0019 14.8949C9.74473 14.0516 9.51885 13.345 9.49999 13.3247C9.47832 13.3014 9.45283 13.3014 9.43079 13.3247C9.4116 13.345 9.18518 14.0516 8.92762 14.8949C8.67006 15.7382 8.42057 16.5155 8.3732 16.6222C8.09289 17.2539 7.50183 17.7617 6.84068 17.939C6.62739 17.9962 5.99263 18.0177 5.80561 17.9739ZM6.7363 17.1636C6.97823 17.0944 7.33809 16.8506 7.48365 16.6575C7.68044 16.3963 7.74977 16.208 8.24221 14.5978C8.5061 13.7349 8.74562 12.9815 8.77448 12.9235C9.03806 12.3943 9.89331 12.3943 10.1569 12.9235C10.1857 12.9815 10.4252 13.7345 10.6889 14.597C10.9527 15.4594 11.2131 16.2571 11.2677 16.3696C11.554 16.9599 12.229 17.3117 12.8932 17.2168C13.3863 17.1463 13.8742 16.7834 14.0836 16.3312C14.141 16.2073 14.4333 15.1095 14.7798 13.7171C15.1083 12.3968 15.4168 11.2061 15.4654 11.0712C15.514 10.9363 15.544 10.8157 15.5319 10.8031C15.5199 10.7905 15.472 10.7803 15.4254 10.7803C15.3789 10.7803 15.2939 10.7381 15.2365 10.6866L15.1323 10.593L15.1212 9.59976L15.1101 8.60648H14.185C13.2607 8.60648 13.2599 8.60642 13.1557 8.51282L13.0514 8.41912V7.15083V5.88256L13.1557 5.78886C13.2599 5.69526 13.2607 5.6952 14.185 5.6952H15.1101L15.1212 4.70192L15.1323 3.70866L15.2365 3.61504C15.3356 3.52613 15.366 3.52141 15.8404 3.52141C16.1151 3.52141 16.3399 3.51026 16.3399 3.4966C16.3399 3.43814 15.8987 2.95394 15.6681 2.75927C14.8941 2.10596 14.0164 1.7765 13.0322 1.76975C11.7252 1.7608 10.6233 2.29664 9.74498 3.36825C9.15155 4.0923 8.3975 4.50852 7.58779 4.55897C7.25317 4.57983 7.24717 4.57864 7.12729 4.46674C7.03276 4.37849 7.00582 4.32242 7.00582 4.21381C7.00582 3.92022 7.1407 3.81674 7.57062 3.78043C7.99762 3.74436 8.41767 3.57324 8.76739 3.29289C8.86359 3.21576 8.94302 3.13265 8.94389 3.10821C8.94473 3.08377 8.82424 2.95595 8.67607 2.8242C7.22965 1.53803 5.17717 1.40502 3.60729 2.4957C2.37664 3.35069 1.68075 4.8015 1.74796 6.37211C1.79831 7.54897 2.08338 8.48111 2.71293 9.5275C3.04378 10.0774 3.25725 10.5084 3.42924 10.9738C3.49641 11.1556 3.8208 12.3873 4.15011 13.711C4.49756 15.1075 4.79037 16.2073 4.84775 16.3312C5.05544 16.7795 5.54954 17.1494 6.03154 17.2173C6.28623 17.2531 6.47331 17.2389 6.7363 17.1636ZM17.2021 9.04947L17.2131 8.05621L17.3174 7.9626C17.4216 7.86905 17.4225 7.86895 18.3485 7.86895H19.2754V7.15083V6.43271H18.3485C17.4225 6.43271 17.4216 6.43264 17.3174 6.3391L17.2131 6.24547L17.2021 5.25221L17.191 4.25894H16.5257H15.8604L15.8494 5.25221L15.8383 6.24547L15.734 6.3391C15.6299 6.43264 15.6289 6.43271 14.7029 6.43271H13.776V7.15083V7.86895H14.7029C15.6289 7.86895 15.6299 7.86905 15.734 7.9626L15.8383 8.05621L15.8494 9.04947L15.8604 10.0427H16.5257H17.191L17.2021 9.04947Z"/>
</mask>
<path d="M5.80561 17.9739C5.33759 17.8645 4.84982 17.5712 4.53364 17.209C4.16605 16.788 4.10308 16.5993 3.44392 13.9439C3.11535 12.6202 2.78742 11.38 2.7152 11.1878C2.56233 10.7811 2.38638 10.4326 2.06545 9.90056C1.619 9.1605 1.31205 8.38929 1.14836 7.59636C0.734615 5.59215 1.19083 3.81633 2.45985 2.49135C3.18264 1.73668 4.09808 1.24006 5.10415 1.05677C5.52308 0.980453 6.35219 0.981217 6.77615 1.05824C7.67678 1.222 8.62425 1.71176 9.30098 2.3634L9.46392 2.52031L9.69704 2.30824C10.2535 1.80212 10.7813 1.48256 11.4404 1.25293C12.0455 1.04211 12.4528 0.984997 13.1779 1.00928C14.0288 1.03778 14.527 1.17124 15.266 1.56856C15.9794 1.95212 16.5607 2.48071 17.0319 3.17435L17.2545 3.50196L17.5023 3.52137C17.6947 3.53645 17.7689 3.5605 17.8346 3.62913C17.9175 3.71575 17.9194 3.73677 17.9302 4.70631L17.9413 5.69514H18.8664C19.7907 5.69514 19.7916 5.69522 19.8957 5.78883L20 5.88251V7.1508V8.41908L19.8957 8.51277C19.7916 8.60637 19.7907 8.60645 18.8664 8.60645H17.9413L17.9302 9.59528C17.916 10.8661 17.9986 10.7538 17.058 10.7802L16.3659 10.7996L16.2254 11.1684C16.1427 11.3853 15.8389 12.5281 15.4874 13.9438C14.7921 16.7449 14.7674 16.8149 14.2997 17.3013C13.9879 17.6257 13.6417 17.8322 13.2215 17.9444C12.8596 18.0411 12.2454 18.0082 11.8818 17.8726C11.3342 17.6684 10.8547 17.2297 10.6001 16.6999C10.5283 16.5504 10.2591 15.7382 10.0019 14.8949C9.74473 14.0516 9.51885 13.345 9.49999 13.3247C9.47832 13.3014 9.45283 13.3014 9.43079 13.3247C9.4116 13.345 9.18518 14.0516 8.92762 14.8949C8.67006 15.7382 8.42057 16.5155 8.3732 16.6222C8.09289 17.2539 7.50183 17.7617 6.84068 17.939C6.62739 17.9962 5.99263 18.0177 5.80561 17.9739ZM6.7363 17.1636C6.97823 17.0944 7.33809 16.8506 7.48365 16.6575C7.68044 16.3963 7.74977 16.208 8.24221 14.5978C8.5061 13.7349 8.74562 12.9815 8.77448 12.9235C9.03806 12.3943 9.89331 12.3943 10.1569 12.9235C10.1857 12.9815 10.4252 13.7345 10.6889 14.597C10.9527 15.4594 11.2131 16.2571 11.2677 16.3696C11.554 16.9599 12.229 17.3117 12.8932 17.2168C13.3863 17.1463 13.8742 16.7834 14.0836 16.3312C14.141 16.2073 14.4333 15.1095 14.7798 13.7171C15.1083 12.3968 15.4168 11.2061 15.4654 11.0712C15.514 10.9363 15.544 10.8157 15.5319 10.8031C15.5199 10.7905 15.472 10.7803 15.4254 10.7803C15.3789 10.7803 15.2939 10.7381 15.2365 10.6866L15.1323 10.593L15.1212 9.59976L15.1101 8.60648H14.185C13.2607 8.60648 13.2599 8.60642 13.1557 8.51282L13.0514 8.41912V7.15083V5.88256L13.1557 5.78886C13.2599 5.69526 13.2607 5.6952 14.185 5.6952H15.1101L15.1212 4.70192L15.1323 3.70866L15.2365 3.61504C15.3356 3.52613 15.366 3.52141 15.8404 3.52141C16.1151 3.52141 16.3399 3.51026 16.3399 3.4966C16.3399 3.43814 15.8987 2.95394 15.6681 2.75927C14.8941 2.10596 14.0164 1.7765 13.0322 1.76975C11.7252 1.7608 10.6233 2.29664 9.74498 3.36825C9.15155 4.0923 8.3975 4.50852 7.58779 4.55897C7.25317 4.57983 7.24717 4.57864 7.12729 4.46674C7.03276 4.37849 7.00582 4.32242 7.00582 4.21381C7.00582 3.92022 7.1407 3.81674 7.57062 3.78043C7.99762 3.74436 8.41767 3.57324 8.76739 3.29289C8.86359 3.21576 8.94302 3.13265 8.94389 3.10821C8.94473 3.08377 8.82424 2.95595 8.67607 2.8242C7.22965 1.53803 5.17717 1.40502 3.60729 2.4957C2.37664 3.35069 1.68075 4.8015 1.74796 6.37211C1.79831 7.54897 2.08338 8.48111 2.71293 9.5275C3.04378 10.0774 3.25725 10.5084 3.42924 10.9738C3.49641 11.1556 3.8208 12.3873 4.15011 13.711C4.49756 15.1075 4.79037 16.2073 4.84775 16.3312C5.05544 16.7795 5.54954 17.1494 6.03154 17.2173C6.28623 17.2531 6.47331 17.2389 6.7363 17.1636ZM17.2021 9.04947L17.2131 8.05621L17.3174 7.9626C17.4216 7.86905 17.4225 7.86895 18.3485 7.86895H19.2754V7.15083V6.43271H18.3485C17.4225 6.43271 17.4216 6.43264 17.3174 6.3391L17.2131 6.24547L17.2021 5.25221L17.191 4.25894H16.5257H15.8604L15.8494 5.25221L15.8383 6.24547L15.734 6.3391C15.6299 6.43264 15.6289 6.43271 14.7029 6.43271H13.776V7.15083V7.86895H14.7029C15.6289 7.86895 15.6299 7.86905 15.734 7.9626L15.8383 8.05621L15.8494 9.04947L15.8604 10.0427H16.5257H17.191L17.2021 9.04947Z" fill="#525B88"/>
<path d="M5.80561 17.9739C5.33759 17.8645 4.84982 17.5712 4.53364 17.209C4.16605 16.788 4.10308 16.5993 3.44392 13.9439C3.11535 12.6202 2.78742 11.38 2.7152 11.1878C2.56233 10.7811 2.38638 10.4326 2.06545 9.90056C1.619 9.1605 1.31205 8.38929 1.14836 7.59636C0.734615 5.59215 1.19083 3.81633 2.45985 2.49135C3.18264 1.73668 4.09808 1.24006 5.10415 1.05677C5.52308 0.980453 6.35219 0.981217 6.77615 1.05824C7.67678 1.222 8.62425 1.71176 9.30098 2.3634L9.46392 2.52031L9.69704 2.30824C10.2535 1.80212 10.7813 1.48256 11.4404 1.25293C12.0455 1.04211 12.4528 0.984997 13.1779 1.00928C14.0288 1.03778 14.527 1.17124 15.266 1.56856C15.9794 1.95212 16.5607 2.48071 17.0319 3.17435L17.2545 3.50196L17.5023 3.52137C17.6947 3.53645 17.7689 3.5605 17.8346 3.62913C17.9175 3.71575 17.9194 3.73677 17.9302 4.70631L17.9413 5.69514H18.8664C19.7907 5.69514 19.7916 5.69522 19.8957 5.78883L20 5.88251V7.1508V8.41908L19.8957 8.51277C19.7916 8.60637 19.7907 8.60645 18.8664 8.60645H17.9413L17.9302 9.59528C17.916 10.8661 17.9986 10.7538 17.058 10.7802L16.3659 10.7996L16.2254 11.1684C16.1427 11.3853 15.8389 12.5281 15.4874 13.9438C14.7921 16.7449 14.7674 16.8149 14.2997 17.3013C13.9879 17.6257 13.6417 17.8322 13.2215 17.9444C12.8596 18.0411 12.2454 18.0082 11.8818 17.8726C11.3342 17.6684 10.8547 17.2297 10.6001 16.6999C10.5283 16.5504 10.2591 15.7382 10.0019 14.8949C9.74473 14.0516 9.51885 13.345 9.49999 13.3247C9.47832 13.3014 9.45283 13.3014 9.43079 13.3247C9.4116 13.345 9.18518 14.0516 8.92762 14.8949C8.67006 15.7382 8.42057 16.5155 8.3732 16.6222C8.09289 17.2539 7.50183 17.7617 6.84068 17.939C6.62739 17.9962 5.99263 18.0177 5.80561 17.9739ZM6.7363 17.1636C6.97823 17.0944 7.33809 16.8506 7.48365 16.6575C7.68044 16.3963 7.74977 16.208 8.24221 14.5978C8.5061 13.7349 8.74562 12.9815 8.77448 12.9235C9.03806 12.3943 9.89331 12.3943 10.1569 12.9235C10.1857 12.9815 10.4252 13.7345 10.6889 14.597C10.9527 15.4594 11.2131 16.2571 11.2677 16.3696C11.554 16.9599 12.229 17.3117 12.8932 17.2168C13.3863 17.1463 13.8742 16.7834 14.0836 16.3312C14.141 16.2073 14.4333 15.1095 14.7798 13.7171C15.1083 12.3968 15.4168 11.2061 15.4654 11.0712C15.514 10.9363 15.544 10.8157 15.5319 10.8031C15.5199 10.7905 15.472 10.7803 15.4254 10.7803C15.3789 10.7803 15.2939 10.7381 15.2365 10.6866L15.1323 10.593L15.1212 9.59976L15.1101 8.60648H14.185C13.2607 8.60648 13.2599 8.60642 13.1557 8.51282L13.0514 8.41912V7.15083V5.88256L13.1557 5.78886C13.2599 5.69526 13.2607 5.6952 14.185 5.6952H15.1101L15.1212 4.70192L15.1323 3.70866L15.2365 3.61504C15.3356 3.52613 15.366 3.52141 15.8404 3.52141C16.1151 3.52141 16.3399 3.51026 16.3399 3.4966C16.3399 3.43814 15.8987 2.95394 15.6681 2.75927C14.8941 2.10596 14.0164 1.7765 13.0322 1.76975C11.7252 1.7608 10.6233 2.29664 9.74498 3.36825C9.15155 4.0923 8.3975 4.50852 7.58779 4.55897C7.25317 4.57983 7.24717 4.57864 7.12729 4.46674C7.03276 4.37849 7.00582 4.32242 7.00582 4.21381C7.00582 3.92022 7.1407 3.81674 7.57062 3.78043C7.99762 3.74436 8.41767 3.57324 8.76739 3.29289C8.86359 3.21576 8.94302 3.13265 8.94389 3.10821C8.94473 3.08377 8.82424 2.95595 8.67607 2.8242C7.22965 1.53803 5.17717 1.40502 3.60729 2.4957C2.37664 3.35069 1.68075 4.8015 1.74796 6.37211C1.79831 7.54897 2.08338 8.48111 2.71293 9.5275C3.04378 10.0774 3.25725 10.5084 3.42924 10.9738C3.49641 11.1556 3.8208 12.3873 4.15011 13.711C4.49756 15.1075 4.79037 16.2073 4.84775 16.3312C5.05544 16.7795 5.54954 17.1494 6.03154 17.2173C6.28623 17.2531 6.47331 17.2389 6.7363 17.1636ZM17.2021 9.04947L17.2131 8.05621L17.3174 7.9626C17.4216 7.86905 17.4225 7.86895 18.3485 7.86895H19.2754V7.15083V6.43271H18.3485C17.4225 6.43271 17.4216 6.43264 17.3174 6.3391L17.2131 6.24547L17.2021 5.25221L17.191 4.25894H16.5257H15.8604L15.8494 5.25221L15.8383 6.24547L15.734 6.3391C15.6299 6.43264 15.6289 6.43271 14.7029 6.43271H13.776V7.15083V7.86895H14.7029C15.6289 7.86895 15.6299 7.86905 15.734 7.9626L15.8383 8.05621L15.8494 9.04947L15.8604 10.0427H16.5257H17.191L17.2021 9.04947Z" stroke="#525B88" stroke-width="0.4" mask="url(#path-1-outside-1_118_11688)"/>
</svg>
