<svg width="25" height="25" viewBox="0 0 25 25" fill="none" xmlns="http://www.w3.org/2000/svg">
<path d="M22.9165 16.6665C22.6402 16.6665 22.3753 16.7762 22.1799 16.9716C21.9846 17.167 21.8748 17.4319 21.8748 17.7082V21.8748H3.12484V17.7082C3.12484 17.4319 3.01509 17.167 2.81974 16.9716C2.62439 16.7762 2.35944 16.6665 2.08317 16.6665C1.8069 16.6665 1.54195 16.7762 1.3466 16.9716C1.15125 17.167 1.0415 17.4319 1.0415 17.7082V22.9165C1.0415 23.1928 1.15125 23.4577 1.3466 23.6531C1.54195 23.8484 1.8069 23.9582 2.08317 23.9582H22.9165C23.1928 23.9582 23.4577 23.8484 23.6531 23.6531C23.8484 23.4577 23.9582 23.1928 23.9582 22.9165V17.7082C23.9582 17.4319 23.8484 17.167 23.6531 16.9716C23.4577 16.7762 23.1928 16.6665 22.9165 16.6665Z" fill="#332AB8"/>
<path d="M11.7636 18.4446C11.9589 18.6399 12.2238 18.7496 12.5001 18.7496C12.7763 18.7496 13.0412 18.6399 13.2365 18.4446L19.4865 12.1946C19.6763 11.9982 19.7813 11.735 19.7789 11.4619C19.7765 11.1888 19.667 10.9275 19.4738 10.7344C19.2807 10.5413 19.0194 10.4317 18.7463 10.4293C18.4732 10.427 18.2101 10.532 18.0136 10.7217L13.5417 15.1936V2.08317C13.5417 1.8069 13.432 1.54195 13.2366 1.3466C13.0413 1.15125 12.7763 1.0415 12.5001 1.0415C12.2238 1.0415 11.9588 1.15125 11.7635 1.3466C11.5681 1.54195 11.4584 1.8069 11.4584 2.08317V15.1936L6.98652 10.7217C6.79006 10.532 6.52693 10.427 6.25381 10.4293C5.98069 10.4317 5.71942 10.5413 5.52629 10.7344C5.33316 10.9275 5.2236 11.1888 5.22123 11.4619C5.21886 11.735 5.32385 11.9982 5.5136 12.1946L11.7636 18.4446Z" fill="#332AB8"/>
</svg>
