<svg width="20" height="20" viewBox="0 0 20 20" fill="none" xmlns="http://www.w3.org/2000/svg">
<g clip-path="url(#clip0_118_11690)">
<path d="M9.24564 19.9844C8.92409 19.8798 8.88915 19.7807 8.88915 18.9733C8.88915 18.2501 8.92006 18.1222 9.12365 18.0034C9.28042 17.912 9.44612 17.9198 9.60617 18.0261C9.8126 18.1633 9.84743 18.321 9.83265 19.0515C9.82172 19.5951 9.80981 19.6922 9.74258 19.7903C9.63287 19.9503 9.4093 20.0376 9.24564 19.9844ZM15.3549 17.4899L15.207 17.3561L15.1936 16.512L15.1803 15.6679H14.3513H13.5223L13.3744 15.534L13.2264 15.4001V14.3099C13.2264 12.8243 13.1711 12.8906 14.4106 12.8906H15.1814L15.1941 12.0771C15.2128 10.8869 15.1533 10.9347 16.613 10.9347C18.0728 10.9347 18.0133 10.8869 18.032 12.0771L18.0447 12.8906H18.8155C20.0522 12.8906 19.9997 12.8289 19.9997 14.2813C19.9997 15.4322 19.9917 15.4805 19.7825 15.6026C19.6878 15.6579 19.5458 15.6679 18.8576 15.6679H18.0446L18.0319 16.4991C18.0136 17.6951 18.1047 17.6238 16.5964 17.6238H15.5027L15.3549 17.4899ZM17.0885 15.9379C17.0885 14.7431 17.0634 14.7682 18.2532 14.7682H19.069V14.3016V13.8351L18.2471 13.8225C17.0668 13.8044 17.0885 13.8265 17.0885 12.6376V11.8736H16.6131H16.1378V12.6376C16.1378 13.829 16.1618 13.8044 14.9811 13.8225L14.1573 13.8351V14.3016V14.7682H14.9731C16.1629 14.7682 16.1378 14.7431 16.1378 15.9379V16.7241H16.6131H17.0885V15.9379ZM1.95626 17.2056C1.84403 17.1299 1.79079 17.0567 1.75143 16.9243C1.69021 16.7182 1.76177 16.5983 2.22552 16.1301C2.81659 15.5334 2.9874 15.4532 3.26855 15.64C3.42056 15.741 3.50622 15.9422 3.47218 16.1181C3.44834 16.2412 2.78037 16.9542 2.49605 17.1599C2.31692 17.2895 2.10697 17.3073 1.95626 17.2056ZM8.61187 17.0743C7.1887 16.9211 5.85639 16.3842 4.75366 15.5194C4.51953 15.3358 1.77799 12.6972 0.777871 11.6929C0.213083 11.1258 0 10.6609 0 9.99593C0 9.32351 0.213782 8.86363 0.798631 8.27791C2.01892 7.05582 4.53314 4.64679 4.81085 4.43358C7.33325 2.49696 10.7883 2.36132 13.423 4.09552C14.0062 4.47937 14.3111 4.75801 16.4595 6.87016C18.2029 8.58405 18.3555 8.74476 18.473 8.9902C18.5429 9.13625 18.6288 9.39287 18.6639 9.56045C18.7187 9.82213 18.7201 9.88332 18.6738 9.99385C18.5584 10.2691 18.1801 10.3581 17.9581 10.1622C17.8661 10.081 17.8171 9.9827 17.7579 9.76123C17.7145 9.59878 17.6228 9.38635 17.5524 9.28521C17.3679 9.02018 13.5877 5.35183 13.2298 5.09038C12.5022 4.55904 11.7393 4.197 10.9093 3.98927C9.97962 3.75657 8.80468 3.7564 7.81188 3.98927C7.10151 4.15556 6.2326 4.55375 5.60649 4.9999C5.26844 5.24079 3.32934 7.07812 1.85455 8.55491C1.00415 9.40649 0.947352 9.49673 0.947352 9.99638C0.947352 10.5715 0.900071 10.5131 3.12551 12.6857C4.19323 13.728 5.20941 14.6905 5.3837 14.8244C6.54864 15.7198 7.9026 16.1769 9.39033 16.1769C10.2053 16.1769 10.9248 16.0412 11.7558 15.7308C12.1174 15.5958 12.2581 15.599 12.4279 15.7463C12.6386 15.9289 12.6547 16.2029 12.4657 16.3895C12.2753 16.5775 11.2933 16.8929 10.5132 17.0165C10.0378 17.0919 9.05181 17.122 8.61193 17.0747L8.61187 17.0743ZM8.87261 14.6861C6.80197 14.4832 5.11799 12.9731 4.66758 10.9152C4.57316 10.4838 4.57316 9.50805 4.66758 9.07669C4.99032 7.60211 5.94219 6.39223 7.28494 5.74991C7.95172 5.43095 8.58666 5.29289 9.38428 5.29346C11.4235 5.29493 13.2286 6.58292 13.8793 8.50097C14.4466 10.1732 14.0065 12.0493 12.7542 13.2971C11.7262 14.3216 10.3131 14.8272 8.87261 14.6861ZM10.2953 13.6728C11.7499 13.2868 12.8504 12.1329 13.1305 10.7C13.1944 10.3732 13.1944 9.61871 13.1305 9.29183C12.8944 8.0842 12.0276 7.01308 10.8895 6.52264C10.0297 6.15214 9.00731 6.10738 8.12698 6.40171C7.18376 6.71704 6.36443 7.43304 5.91637 8.33346C5.60885 8.95147 5.5472 9.22911 5.5472 9.99593C5.5472 10.7628 5.60885 11.0404 5.91637 11.6584C6.45932 12.7495 7.46779 13.5034 8.69173 13.7329C9.10979 13.8113 9.88246 13.7824 10.2953 13.6728ZM8.94857 12.9669C7.54527 12.7833 6.44011 11.6251 6.33137 10.2241C6.30408 9.87254 6.37731 9.70004 6.59934 9.59287C6.72108 9.5341 6.77213 9.52935 6.90432 9.56451C7.13641 9.62622 7.22077 9.76728 7.26727 10.1714C7.33143 10.7291 7.50612 11.0887 7.90005 11.4742C8.05248 11.6233 8.24574 11.761 8.42597 11.8489C8.68809 11.9768 8.81456 12.0075 9.44056 12.0953C9.65298 12.1251 9.80018 12.307 9.80018 12.5397C9.80018 12.696 9.78036 12.7477 9.68374 12.8431C9.57511 12.9504 9.40115 13.0146 9.25059 13.003C9.21518 13.0003 9.07928 12.984 8.94857 12.9669ZM8.94857 10.8417C8.71255 10.7318 8.60497 10.6237 8.49637 10.3871C8.34541 10.0583 8.41848 9.5994 8.66385 9.33554C8.71152 9.2843 8.83964 9.20086 8.94857 9.15013C9.43847 8.92197 9.98645 9.12603 10.2219 9.62433C10.3409 9.876 10.3409 10.1159 10.2219 10.3676C9.98645 10.8658 9.43847 11.0699 8.94857 10.8417ZM2.72976 4.33306C2.43253 4.11672 1.77474 3.41247 1.7484 3.28237C1.65899 2.84092 2.12254 2.56167 2.49605 2.83197C2.77446 3.03345 3.44834 3.75067 3.47145 3.87012C3.52559 4.14975 3.34184 4.39911 3.05901 4.42983C2.91533 4.44544 2.86303 4.42982 2.72976 4.33306ZM15.4594 4.37546C15.2467 4.24508 15.1717 3.99451 15.2824 3.78418C15.313 3.72607 15.5609 3.46292 15.8334 3.19937C16.3204 2.7282 16.3318 2.72017 16.5092 2.72017C16.663 2.72017 16.7104 2.74062 16.8297 2.85839C16.9489 2.97615 16.9696 3.02297 16.9696 3.17485C16.9696 3.35012 16.9616 3.3613 16.4844 3.8423C16.2175 4.11136 15.951 4.35621 15.8922 4.38642C15.7517 4.45855 15.5882 4.45439 15.4594 4.37546ZM9.11713 1.98654C8.9199 1.86579 8.88915 1.7361 8.88915 1.025C8.88915 0.66929 8.90589 0.334788 8.92634 0.281668C9.0555 -0.0538484 9.53518 -0.10092 9.74258 0.201583C9.80981 0.299633 9.82165 0.396797 9.83265 0.94036C9.84747 1.6709 9.8126 1.82858 9.60617 1.96575C9.44733 2.07132 9.26802 2.07893 9.11713 1.98654Z" fill="#525B88"/>
</g>
<defs>
<clipPath id="clip0_118_11690">
<rect width="20" height="20" fill="white"/>
</clipPath>
</defs>
</svg>
